/* XPM */
static char *exit_xpm[] = {
"32 32 2 1",
"0 c #c8c2b8",
"1 c #3aa655",
"11111111111111111111111111111111",
"10000000000000000000000000000001",
"10000000000000000000000000000001",
"10000000000000000000000000000001",
"10000000000000000000000000000001",
"10000000000000000000000000000001",
"10000000000000000000000000000001",
"10000000000000000000000000000001",
"10000000000000000000000000000001",
"10000000000000000000000000000001",
"10000000000000000000000000000001",
"10000000000000000000000000000001",
"10000000000000000000000000000001",
"10000000000000000000000000000001",
"10000000000000000000000000000001",
"10000000000000000000000000000001",
"10000000000000000000000000000001",
"10000000000000000000000000000001",
"10000000000000000000000000000001",
"10000000000000000000000000000001",
"10000000000000000000000000000001",
"10000000000000000000000000000001",
"10000000000000000000000000000001",
"10000000000000000000000000000001",
"10000000000000000000000000000001",
"10000000000000000000000000000001",
"10000000000000000000000000000001",
"10000000000000000000000000000001",
"10000000000000000000000000000001",
"10000000000000000000000000000001",
"10000000000000000000000000000001",
"11111111111111111111111111111111"
};
